# xmcd
#
# Track frame offsets:
#	183
#	10230
#	21453
#	35880
#	45605
#	53888
#	68443
#	83168
#	96110
#	107188
#
# Disc length: 1606 seconds
#
# Revision: 4
# Processed by: cddbd v1.5.1PL0 Copyright (c) Steve Scherf et al.
# Submitted via: MusicManager 7.0.6.0 
#
DISCID=7f06440a
DTITLE=Various Artist - The New Tradition Sings the Old Tradition
DYEAR=1900
DGENRE=
TTITLE0=Hank Williams Jr - Honky Tonkin'
TTITLE1=K D Lang - Three Cigarettes In An Ashtray
TTITLE2=Dwight Yoakam - Smoke Along The Track
TTITLE3=Highway 101 - There Goes My Love
TTITLE4=Pinkard and Bowden - Help Me Make It Through The Yard
TTITLE5=Chris Austin - Blues Stay Away From Me
TTITLE6=The Forrester Sisters - Too Many Rivers
TTITLE7=Michael Martin Murphy - Devil Woman
TTITLE8=Emmylou Harris - Tennessee Waltz
TTITLE9=Rodney Crowel - - Old Pipeliner
EXTD=
EXTT0=
EXTT1=
EXTT2=
EXTT3=
EXTT4=
EXTT5=
EXTT6=
EXTT7=
EXTT8=
EXTT9=
PLAYORDER=
